<?xml version="1.0" encoding="utf-8"?>
<svg viewBox="103.506 22.172 242.16 241.195" xmlns="http://www.w3.org/2000/svg" xmlns:bx="https://boxy-svg.com">
  <ellipse style="stroke: rgb(0, 0, 0);" cx="225.177" cy="143.469" rx="68.262" ry="68.262"/>
  <path d="M 219.477 27.056 Q 224.587 17.287 229.696 27.056 L 246.369 58.936 Q 251.478 68.705 241.259 68.705 L 207.914 68.705 Q 197.695 68.705 202.804 58.936 Z" style="stroke: rgb(0, 0, 0);" bx:shape="triangle 197.695 17.287 53.783 51.418 0.5 0.19 1@9ffedb32"/>
  <path d="M 423.378 129.893 Q 428.488 120.124 433.597 129.893 L 450.27 161.773 Q 455.379 171.542 445.16 171.542 L 411.815 171.542 Q 401.596 171.542 406.705 161.773 Z" style="stroke: rgb(0, 0, 0);" transform="matrix(0, 1, -1, 0, 470.674812, -284.722722)" bx:shape="triangle 401.596 120.124 53.783 51.418 0.5 0.19 1@50fe68d6"/>
  <path d="M 423.378 129.893 Q 428.488 120.124 433.597 129.893 L 450.27 161.773 Q 455.379 171.542 445.16 171.542 L 411.815 171.542 Q 401.596 171.542 406.705 161.773 Z" style="stroke: rgb(0, 0, 0);" transform="matrix(0, -1, 1, 0, -21.502224, 572.843331)" bx:shape="triangle 401.596 120.124 53.783 51.418 0.5 0.19 1@50fe68d6"/>
  <path d="M -229.991 -258.482 Q -224.881 -268.251 -219.772 -258.482 L -203.099 -226.602 Q -197.99 -216.833 -208.209 -216.833 L -241.554 -216.833 Q -251.773 -216.833 -246.664 -226.602 Z" style="stroke: rgb(0, 0, 0);" transform="matrix(-1, 0, 0, -1, 0, 0)" bx:shape="triangle -251.773 -268.251 53.783 51.418 0.5 0.19 1@a27dfccc"/>
  <path d="M 423.378 129.893 Q 428.488 120.124 433.597 129.893 L 450.27 161.773 Q 455.379 171.542 445.16 171.542 L 411.815 171.542 Q 401.596 171.542 406.705 161.773 Z" style="stroke: rgb(0, 0, 0);" transform="matrix(0.707107, 0.707107, -0.707107, 0.707107, 95.85795, -336.024358)" bx:shape="triangle 401.596 120.124 53.783 51.418 0.5 0.19 1@50fe68d6"/>
  <path d="M 423.378 129.893 Q 428.488 120.124 433.597 129.893 L 450.27 161.773 Q 455.379 171.542 445.16 171.542 L 411.815 171.542 Q 401.596 171.542 406.705 161.773 Z" style="stroke: rgb(0, 0, 0);" transform="matrix(0.707106, -0.707107, 0.707107, 0.707106, -253.314823, 269.948765)" bx:shape="triangle 401.596 120.124 53.783 51.418 0.5 0.19 1@50fe68d6"/>
  <path d="M 423.378 129.893 Q 428.488 120.124 433.597 129.893 L 450.27 161.773 Q 455.379 171.542 445.16 171.542 L 411.815 171.542 Q 401.596 171.542 406.705 161.773 Z" style="stroke: rgb(0, 0, 0);" transform="matrix(-0.707107, 0.707107, -0.707107, -0.707107, 701.831004, 14.330564)" bx:shape="triangle 401.596 120.124 53.783 51.418 0.5 0.19 1@50fe68d6"/>
  <path d="M 423.378 129.893 Q 428.488 120.124 433.597 129.893 L 450.27 161.773 Q 455.379 171.542 445.16 171.542 L 411.815 171.542 Q 401.596 171.542 406.705 161.773 Z" style="stroke: rgb(0, 0, 0);" transform="matrix(-0.707107, -0.707107, 0.707107, -0.707107, 352.657812, 620.303598)" bx:shape="triangle 401.596 120.124 53.783 51.418 0.5 0.19 1@50fe68d6"/>
</svg>