<?xml version="1.0" encoding="UTF-8"?>
<svg xmlns="http://www.w3.org/2000/svg" xmlns:xlink="http://www.w3.org/1999/xlink" width="10px" height="px" viewBox="0 0 10 10" version="1.1">
<g id="surface1">
<path style=" stroke:none;fill-rule:nonzero;fill:rgb(100%,100%,100%);fill-opacity:1;" d="M 1.09375 1.300781 C 1.15625 1.304688 1.226562 1.3125 1.269531 1.269531 C 1.316406 1.226562 1.308594 1.15625 1.308594 1.09375 C 1.308594 1.03125 1.320312 0.957031 1.273438 0.914062 C 1.226562 0.871094 1.15625 0.875 1.09375 0.886719 C 1.042969 0.894531 1.003906 0.933594 0.964844 0.964844 C 0.921875 1.003906 0.859375 1.035156 0.851562 1.09375 C 0.839844 1.15625 0.871094 1.226562 0.917969 1.269531 C 0.964844 1.308594 1.03125 1.300781 1.09375 1.300781 "/>
<path style=" stroke:none;fill-rule:nonzero;fill:rgb(0%,0%,0%);fill-opacity:1;" d="M 4.15625 1.59375 L 4.15625 1.953125 L 3.238281 1.953125 L 3.238281 0.839844 L 4.15625 0.839844 L 4.15625 1.234375 L 3.632812 1.234375 L 3.632812 1.59375 Z M 5.097656 1.234375 L 5.460938 1.234375 L 5.460938 0.839844 L 4.546875 0.839844 C 4.546875 0.839844 4.546875 1.039062 4.546875 1.234375 C 4.667969 1.355469 4.734375 1.414062 4.910156 1.59375 C 4.804688 1.59375 4.546875 1.59375 4.546875 1.59375 L 4.546875 1.953125 L 5.460938 1.953125 L 5.460938 1.59375 Z M 6.394531 1.234375 L 6.761719 1.234375 L 6.761719 0.839844 L 5.84375 0.839844 C 5.84375 0.839844 5.84375 1.039062 5.84375 1.234375 C 5.96875 1.355469 6.03125 1.414062 6.210938 1.59375 C 6.105469 1.59375 5.84375 1.59375 5.84375 1.59375 L 5.84375 1.953125 L 6.761719 1.953125 L 6.761719 1.59375 Z M 7.96875 2.480469 L 7.410156 8.507812 L 5 9.160156 L 2.589844 8.507812 L 2.03125 2.480469 Z M 6.847656 3.707031 L 3.117188 3.707031 L 3.207031 4.433594 L 5.097656 4.433594 L 4.996094 4.476562 L 3.269531 5.195312 L 3.328125 5.90625 L 4.996094 5.910156 L 5.890625 5.914062 L 5.835938 6.863281 L 4.996094 7.097656 L 4.992188 7.101562 L 4.183594 6.894531 L 4.132812 6.308594 L 3.378906 6.308594 L 3.476562 7.445312 L 4.996094 7.894531 L 5 7.894531 L 6.515625 7.453125 L 6.710938 5.195312 L 4.992188 5.195312 L 4.996094 5.191406 L 6.773438 4.433594 Z M 6.847656 3.707031 "/>
</g>
</svg>
