<?xml version="1.0" encoding="UTF-8"?>
<svg xmlns="http://www.w3.org/2000/svg" xmlns:xlink="http://www.w3.org/1999/xlink" width="10px" height="px" viewBox="0 0 10 10" version="1.1">
<g id="surface1">
<path style=" stroke:none;fill-rule:nonzero;fill:rgb(2.352941%,42.745098%,64.705882%);fill-opacity:1;" d="M 1.5 0 L 8.5 0 C 9.328125 0 10 0.671875 10 1.5 L 10 8.5 C 10 9.328125 9.328125 10 8.5 10 L 1.5 10 C 0.671875 10 0 9.328125 0 8.5 L 0 1.5 C 0 0.671875 0.671875 0 1.5 0 Z M 1.5 0 "/>
<path style=" stroke:none;fill-rule:nonzero;fill:rgb(100%,100%,100%);fill-opacity:1;" d="M 5.78125 4.785156 L 6.601562 4.785156 L 6.601562 4.042969 L 5.78125 4.042969 Z M 4.804688 4.785156 L 5.625 4.785156 L 5.625 4.042969 L 4.804688 4.042969 Z M 3.847656 4.785156 L 4.667969 4.785156 L 4.667969 4.042969 L 3.847656 4.042969 Z M 2.890625 4.785156 L 3.691406 4.785156 L 3.691406 4.042969 L 2.890625 4.042969 Z M 1.914062 4.785156 L 2.734375 4.785156 L 2.734375 4.042969 L 1.914062 4.042969 Z M 2.890625 3.886719 L 3.691406 3.886719 L 3.691406 3.144531 L 2.890625 3.144531 Z M 3.847656 3.886719 L 4.667969 3.886719 L 4.667969 3.144531 L 3.847656 3.144531 Z M 4.804688 3.886719 L 5.625 3.886719 L 5.625 3.144531 L 4.804688 3.144531 Z M 4.804688 2.988281 L 5.625 2.988281 L 5.625 2.246094 L 4.804688 2.246094 Z M 9.21875 4.453125 C 9.21875 4.453125 8.867188 4.121094 8.144531 4.238281 C 8.066406 3.671875 7.460938 3.339844 7.460938 3.339844 C 7.460938 3.339844 6.894531 4.023438 7.304688 4.785156 C 7.1875 4.84375 6.992188 4.921875 6.699219 4.921875 L 1.328125 4.921875 C 1.230469 5.292969 1.230469 7.753906 3.925781 7.753906 C 5.859375 7.753906 7.304688 6.855469 7.988281 5.214844 C 9.003906 5.292969 9.21875 4.453125 9.21875 4.453125 Z M 9.21875 4.453125 "/>
</g>
</svg>
