<?xml version="1.0" encoding="UTF-8"?>
<svg xmlns="http://www.w3.org/2000/svg" xmlns:xlink="http://www.w3.org/1999/xlink" width="10px" height="px" viewBox="0 0 10 5" version="1.1">
<g id="surface1">
<path style=" stroke:none;fill-rule:nonzero;fill:rgb(44.705882%,53.72549%,85.490196%);fill-opacity:1;" d="M 1.820312 2.285156 C 1.746094 2.285156 1.6875 2.351562 1.6875 2.433594 C 1.6875 2.515625 1.746094 2.582031 1.820312 2.582031 C 1.898438 2.582031 1.957031 2.515625 1.957031 2.433594 C 1.957031 2.351562 1.898438 2.285156 1.820312 2.285156 Z M 1.335938 2.285156 C 1.257812 2.285156 1.199219 2.351562 1.199219 2.433594 C 1.199219 2.515625 1.261719 2.582031 1.335938 2.582031 C 1.410156 2.582031 1.472656 2.515625 1.472656 2.433594 C 1.472656 2.351562 1.410156 2.285156 1.335938 2.285156 Z M 2.472656 1.175781 L 0.683594 1.175781 C 0.53125 1.175781 0.410156 1.300781 0.410156 1.449219 L 0.410156 3.238281 C 0.410156 3.390625 0.53125 3.511719 0.683594 3.511719 L 2.195312 3.511719 L 2.125 3.269531 L 2.296875 3.425781 L 2.457031 3.574219 L 2.746094 3.824219 L 2.746094 1.449219 C 2.746094 1.300781 2.621094 1.175781 2.46875 1.175781 Z M 1.957031 2.90625 L 1.867188 2.796875 C 2.042969 2.75 2.109375 2.640625 2.109375 2.640625 C 2.058594 2.671875 2.007812 2.699219 1.953125 2.71875 C 1.886719 2.746094 1.824219 2.765625 1.761719 2.777344 C 1.632812 2.800781 1.515625 2.792969 1.414062 2.777344 C 1.339844 2.761719 1.273438 2.742188 1.21875 2.71875 C 1.1875 2.707031 1.15625 2.691406 1.121094 2.671875 C 1.117188 2.667969 1.113281 2.667969 1.109375 2.664062 C 1.105469 2.664062 1.105469 2.664062 1.105469 2.664062 L 1.066406 2.640625 C 1.066406 2.640625 1.132812 2.746094 1.300781 2.796875 L 1.210938 2.90625 C 0.914062 2.894531 0.804688 2.703125 0.804688 2.703125 C 0.804688 2.277344 0.996094 1.933594 0.996094 1.933594 C 1.1875 1.789062 1.371094 1.792969 1.371094 1.792969 L 1.382812 1.808594 C 1.144531 1.878906 1.035156 1.984375 1.035156 1.984375 C 1.035156 1.984375 1.0625 1.96875 1.113281 1.945312 C 1.253906 1.882812 1.367188 1.867188 1.414062 1.863281 C 1.421875 1.859375 1.429688 1.859375 1.4375 1.859375 C 1.527344 1.847656 1.617188 1.847656 1.707031 1.855469 C 1.835938 1.871094 1.96875 1.910156 2.109375 1.984375 C 2.109375 1.984375 2.003906 1.882812 1.777344 1.816406 L 1.792969 1.792969 C 1.792969 1.792969 1.976562 1.789062 2.167969 1.933594 C 2.167969 1.933594 2.359375 2.277344 2.359375 2.703125 C 2.359375 2.703125 2.25 2.894531 1.953125 2.90625 Z M 3.5625 1.917969 L 3.125 1.917969 L 3.125 2.40625 L 3.414062 2.667969 L 3.414062 2.191406 L 3.570312 2.191406 C 3.667969 2.191406 3.71875 2.242188 3.71875 2.316406 L 3.71875 2.679688 C 3.71875 2.757812 3.671875 2.808594 3.570312 2.808594 L 3.125 2.808594 L 3.125 3.085938 L 3.558594 3.085938 C 3.792969 3.085938 4.011719 2.96875 4.011719 2.703125 L 4.011719 2.308594 C 4.015625 2.035156 3.796875 1.917969 3.5625 1.917969 Z M 5.847656 2.703125 L 5.847656 2.300781 C 5.847656 2.15625 6.109375 2.121094 6.1875 2.265625 L 6.429688 2.167969 C 6.332031 1.960938 6.160156 1.902344 6.019531 1.902344 C 5.785156 1.902344 5.554688 2.035156 5.554688 2.300781 L 5.554688 2.703125 C 5.554688 2.96875 5.785156 3.101562 6.011719 3.101562 C 6.191406 3.101562 6.355469 3 6.433594 2.839844 L 6.175781 2.71875 C 6.113281 2.882812 5.847656 2.84375 5.847656 2.703125 Z M 5.054688 2.355469 C 4.960938 2.335938 4.902344 2.300781 4.898438 2.246094 C 4.902344 2.109375 5.113281 2.105469 5.234375 2.234375 L 5.429688 2.085938 C 5.308594 1.941406 5.171875 1.898438 5.03125 1.898438 C 4.816406 1.898438 4.609375 2.019531 4.609375 2.25 C 4.609375 2.472656 4.777344 2.589844 4.964844 2.621094 C 5.0625 2.632812 5.167969 2.671875 5.167969 2.738281 C 5.160156 2.863281 4.902344 2.855469 4.785156 2.714844 L 4.597656 2.890625 C 4.703125 3.03125 4.855469 3.101562 4.992188 3.101562 C 5.207031 3.101562 5.445312 2.976562 5.457031 2.75 C 5.46875 2.464844 5.261719 2.390625 5.054688 2.355469 Z M 4.171875 3.082031 L 4.46875 3.082031 L 4.46875 1.917969 L 4.171875 1.917969 Z M 9.136719 1.917969 L 8.703125 1.917969 L 8.703125 2.40625 L 8.992188 2.667969 L 8.992188 2.195312 L 9.148438 2.195312 C 9.246094 2.195312 9.292969 2.242188 9.292969 2.316406 L 9.292969 2.683594 C 9.292969 2.757812 9.25 2.808594 9.148438 2.808594 L 8.699219 2.808594 L 8.699219 3.085938 L 9.136719 3.085938 C 9.371094 3.089844 9.59375 2.972656 9.59375 2.703125 L 9.59375 2.3125 C 9.59375 2.039062 9.371094 1.917969 9.136719 1.917969 Z M 6.996094 1.902344 C 6.753906 1.902344 6.511719 2.03125 6.511719 2.300781 L 6.511719 2.699219 C 6.515625 2.964844 6.753906 3.101562 7 3.101562 C 7.242188 3.101562 7.484375 2.964844 7.484375 2.699219 L 7.484375 2.300781 C 7.484375 2.03125 7.238281 1.898438 7 1.898438 Z M 7.1875 2.699219 C 7.1875 2.78125 7.089844 2.828125 6.996094 2.828125 C 6.902344 2.828125 6.808594 2.785156 6.808594 2.699219 L 6.808594 2.300781 C 6.808594 2.214844 6.902344 2.171875 6.992188 2.171875 C 7.085938 2.171875 7.183594 2.210938 7.183594 2.300781 Z M 8.539062 2.300781 C 8.53125 2.027344 8.34375 1.917969 8.105469 1.917969 L 7.636719 1.917969 L 7.636719 3.085938 L 7.9375 3.085938 L 7.9375 2.714844 L 7.988281 2.714844 L 8.261719 3.085938 L 8.628906 3.085938 L 8.308594 2.683594 C 8.449219 2.636719 8.539062 2.515625 8.539062 2.300781 Z M 8.109375 2.457031 L 7.9375 2.457031 L 7.9375 2.191406 L 8.109375 2.191406 C 8.296875 2.191406 8.296875 2.457031 8.109375 2.457031 Z M 8.109375 2.457031 "/>
</g>
</svg>
