<?xml version="1.0" encoding="UTF-8"?>
<svg xmlns="http://www.w3.org/2000/svg" xmlns:xlink="http://www.w3.org/1999/xlink" width="10px" height="px" viewBox="0 0 10 5" version="1.1">
<defs>
<clipPath id="clip1">
  <path d="M 1 3 L 3 3 L 3 4 L 1 4 Z M 1 3 "/>
</clipPath>
<clipPath id="clip2">
  <path d="M 2 3.484375 C 2.003906 3.464844 2.003906 3.4375 1.949219 3.449219 C 1.949219 3.449219 1.792969 3.472656 1.785156 3.652344 L 1.78125 4 L 1.746094 4 L 1.742188 3.652344 C 1.734375 3.472656 1.578125 3.449219 1.578125 3.449219 C 1.519531 3.4375 1.523438 3.464844 1.527344 3.484375 C 1.472656 3.386719 1.324219 3.402344 1.324219 3.402344 C 1.269531 3.417969 1.320312 3.453125 1.320312 3.453125 C 1.402344 3.480469 1.40625 3.570312 1.40625 3.570312 L 1.40625 3.820312 L 1.417969 4.015625 C 1.433594 4.101562 1.480469 4.152344 1.527344 4.183594 L 2.003906 4.183594 C 2.058594 4.144531 2.117188 4.070312 2.117188 3.929688 L 2.117188 3.570312 C 2.117188 3.570312 2.125 3.480469 2.207031 3.453125 C 2.207031 3.453125 2.253906 3.417969 2.203125 3.402344 C 2.203125 3.402344 2.199219 3.398438 2.1875 3.398438 C 2.144531 3.398438 2.042969 3.40625 2 3.484375 M 1.546875 3.839844 L 1.546875 3.566406 C 1.546875 3.539062 1.542969 3.519531 1.535156 3.5 C 1.589844 3.539062 1.59375 3.644531 1.59375 3.644531 L 1.59375 3.988281 C 1.539062 3.949219 1.546875 3.839844 1.546875 3.839844 M 1.933594 3.644531 C 1.933594 3.644531 1.9375 3.539062 1.992188 3.5 C 1.984375 3.519531 1.976562 3.539062 1.976562 3.566406 L 1.976562 3.839844 C 1.976562 3.839844 1.988281 3.941406 1.933594 3.984375 Z M 1.933594 3.644531 "/>
</clipPath>
<clipPath id="clip3">
  <path d="M 0 1 L 3.558594 1 L 3.558594 4 L 0 4 Z M 0 1 "/>
</clipPath>
</defs>
<g id="surface1">
<path style=" stroke:none;fill-rule:nonzero;fill:rgb(62.745098%,86.27451%,94.901961%);fill-opacity:1;" d="M 2.609375 3.492188 C 2.609375 3.65625 2.234375 3.785156 1.773438 3.785156 C 1.316406 3.785156 0.941406 3.65625 0.941406 3.492188 C 0.941406 3.332031 1.316406 3.203125 1.773438 3.203125 C 2.234375 3.203125 2.609375 3.332031 2.609375 3.492188 "/>
<g clip-path="url(#clip1)" clip-rule="nonzero">
<g clip-path="url(#clip2)" clip-rule="nonzero">
<path style=" stroke:none;fill-rule:nonzero;fill:rgb(50.980392%,74.117647%,90.588235%);fill-opacity:1;" d="M 2.609375 3.492188 C 2.609375 3.65625 2.234375 3.785156 1.773438 3.785156 C 1.316406 3.785156 0.941406 3.65625 0.941406 3.492188 C 0.941406 3.332031 1.316406 3.203125 1.773438 3.203125 C 2.234375 3.203125 2.609375 3.332031 2.609375 3.492188 "/>
</g>
</g>
<path style=" stroke:none;fill-rule:nonzero;fill:rgb(62.745098%,86.27451%,94.901961%);fill-opacity:1;" d="M 0.824219 2.636719 L 0.800781 2.71875 C 0.800781 2.71875 0.792969 2.75 0.820312 2.757812 C 0.851562 2.753906 0.847656 2.726562 0.847656 2.71875 Z M 0.824219 2.636719 "/>
<g clip-path="url(#clip3)" clip-rule="nonzero">
<path style=" stroke:none;fill-rule:nonzero;fill:rgb(16.078431%,16.078431%,16.078431%);fill-opacity:1;" d="M 3.246094 2.285156 L 3.246094 2.273438 C 3.003906 2.226562 2.753906 2.226562 2.601562 2.230469 C 2.625 2.140625 2.632812 2.039062 2.632812 1.921875 C 2.632812 1.757812 2.570312 1.625 2.46875 1.523438 C 2.488281 1.46875 2.511719 1.34375 2.445312 1.179688 C 2.445312 1.179688 2.332031 1.144531 2.074219 1.316406 C 1.972656 1.292969 1.867188 1.277344 1.757812 1.277344 C 1.640625 1.277344 1.519531 1.292969 1.40625 1.324219 C 1.140625 1.144531 1.023438 1.179688 1.023438 1.179688 C 0.949219 1.371094 0.996094 1.515625 1.007812 1.550781 C 0.917969 1.648438 0.863281 1.769531 0.863281 1.921875 C 0.863281 2.039062 0.878906 2.140625 0.910156 2.230469 C 0.757812 2.226562 0.515625 2.226562 0.277344 2.273438 L 0.28125 2.285156 C 0.519531 2.238281 0.761719 2.238281 0.914062 2.242188 C 0.921875 2.261719 0.929688 2.277344 0.9375 2.296875 C 0.785156 2.300781 0.53125 2.320312 0.285156 2.390625 L 0.285156 2.398438 C 0.535156 2.332031 0.792969 2.3125 0.941406 2.308594 C 1.03125 2.472656 1.210938 2.582031 1.523438 2.617188 C 1.480469 2.648438 1.433594 2.699219 1.414062 2.785156 C 1.355469 2.8125 1.160156 2.882812 1.046875 2.683594 C 1.046875 2.683594 0.980469 2.566406 0.859375 2.558594 C 0.859375 2.558594 0.738281 2.554688 0.847656 2.632812 C 0.847656 2.632812 0.929688 2.671875 0.984375 2.8125 C 0.984375 2.8125 1.058594 3.054688 1.40625 2.976562 L 1.40625 3.230469 C 1.40625 3.230469 1.398438 3.316406 1.320312 3.347656 C 1.320312 3.347656 1.269531 3.382812 1.320312 3.398438 C 1.320312 3.398438 1.546875 3.417969 1.546875 3.234375 L 1.546875 2.960938 C 1.546875 2.960938 1.539062 2.851562 1.59375 2.8125 L 1.59375 3.261719 C 1.59375 3.261719 1.589844 3.371094 1.535156 3.410156 C 1.535156 3.410156 1.496094 3.476562 1.578125 3.460938 C 1.578125 3.460938 1.734375 3.4375 1.742188 3.253906 L 1.742188 2.800781 L 1.78125 2.800781 L 1.785156 3.253906 C 1.792969 3.4375 1.949219 3.460938 1.949219 3.460938 C 2.027344 3.476562 1.992188 3.410156 1.992188 3.410156 C 1.9375 3.371094 1.933594 3.261719 1.933594 3.261719 L 1.933594 2.816406 C 1.988281 2.859375 1.976562 2.960938 1.976562 2.960938 L 1.976562 3.234375 C 1.976562 3.417969 2.203125 3.398438 2.203125 3.398438 C 2.253906 3.382812 2.207031 3.347656 2.207031 3.347656 C 2.125 3.316406 2.117188 3.230469 2.117188 3.230469 L 2.117188 2.871094 C 2.117188 2.730469 2.058594 2.65625 2 2.617188 C 2.335938 2.585938 2.5 2.476562 2.574219 2.308594 C 2.71875 2.3125 2.984375 2.328125 3.238281 2.398438 L 3.242188 2.390625 C 2.988281 2.320312 2.726562 2.300781 2.578125 2.296875 C 2.585938 2.277344 2.589844 2.261719 2.597656 2.242188 C 2.746094 2.234375 3 2.238281 3.246094 2.285156 "/>
</g>
<path style=" stroke:none;fill-rule:nonzero;fill:rgb(96.078431%,80.392157%,70.980392%);fill-opacity:1;" d="M 2.304688 1.914062 C 2.375 1.980469 2.417969 2.058594 2.417969 2.144531 C 2.417969 2.542969 2.121094 2.554688 1.753906 2.554688 C 1.390625 2.554688 1.09375 2.5 1.09375 2.144531 C 1.09375 2.0625 1.132812 1.980469 1.207031 1.917969 C 1.324219 1.808594 1.527344 1.867188 1.753906 1.867188 C 1.984375 1.867188 2.183594 1.808594 2.304688 1.914062 "/>
<path style=" stroke:none;fill-rule:nonzero;fill:rgb(100%,100%,100%);fill-opacity:1;" d="M 1.535156 2.164062 C 1.535156 2.277344 1.472656 2.363281 1.398438 2.363281 C 1.320312 2.363281 1.257812 2.277344 1.257812 2.164062 C 1.257812 2.054688 1.320312 1.96875 1.398438 1.96875 C 1.472656 1.96875 1.535156 2.054688 1.535156 2.164062 "/>
<path style=" stroke:none;fill-rule:nonzero;fill:rgb(69.411765%,39.215686%,35.294118%);fill-opacity:1;" d="M 1.492188 2.167969 C 1.492188 2.242188 1.449219 2.300781 1.398438 2.300781 C 1.347656 2.300781 1.304688 2.242188 1.304688 2.167969 C 1.304688 2.09375 1.347656 2.035156 1.398438 2.035156 C 1.449219 2.035156 1.492188 2.09375 1.492188 2.167969 "/>
<path style=" stroke:none;fill-rule:nonzero;fill:rgb(100%,100%,100%);fill-opacity:1;" d="M 2.273438 2.164062 C 2.273438 2.277344 2.214844 2.363281 2.136719 2.363281 C 2.0625 2.363281 2 2.277344 2 2.164062 C 2 2.054688 2.0625 1.96875 2.136719 1.96875 C 2.214844 1.96875 2.273438 2.054688 2.273438 2.164062 "/>
<path style=" stroke:none;fill-rule:nonzero;fill:rgb(69.411765%,39.215686%,35.294118%);fill-opacity:1;" d="M 2.230469 2.167969 C 2.230469 2.242188 2.191406 2.300781 2.140625 2.300781 C 2.089844 2.300781 2.046875 2.242188 2.046875 2.167969 C 2.046875 2.09375 2.089844 2.035156 2.140625 2.035156 C 2.191406 2.035156 2.230469 2.09375 2.230469 2.167969 M 1.792969 2.34375 C 1.792969 2.359375 1.777344 2.375 1.757812 2.375 C 1.738281 2.375 1.722656 2.359375 1.722656 2.34375 C 1.722656 2.324219 1.738281 2.308594 1.757812 2.308594 C 1.777344 2.308594 1.792969 2.324219 1.792969 2.34375 M 1.675781 2.429688 C 1.675781 2.421875 1.679688 2.417969 1.683594 2.414062 C 1.691406 2.414062 1.695312 2.417969 1.699219 2.421875 C 1.707031 2.445312 1.730469 2.464844 1.757812 2.464844 C 1.785156 2.464844 1.808594 2.445312 1.816406 2.421875 C 1.816406 2.417969 1.824219 2.414062 1.832031 2.414062 C 1.835938 2.417969 1.839844 2.421875 1.835938 2.429688 C 1.824219 2.464844 1.792969 2.484375 1.757812 2.484375 C 1.722656 2.484375 1.6875 2.464844 1.675781 2.429688 "/>
<path style=" stroke:none;fill-rule:nonzero;fill:rgb(77.254902%,90.196078%,85.490196%);fill-opacity:1;" d="M 0.910156 2.585938 C 0.910156 2.597656 0.902344 2.605469 0.886719 2.605469 C 0.875 2.605469 0.863281 2.597656 0.863281 2.585938 C 0.863281 2.578125 0.875 2.570312 0.886719 2.570312 C 0.902344 2.570312 0.910156 2.578125 0.910156 2.585938 M 0.976562 2.625 C 0.976562 2.632812 0.96875 2.640625 0.953125 2.640625 C 0.941406 2.640625 0.929688 2.632812 0.929688 2.625 C 0.929688 2.613281 0.941406 2.609375 0.953125 2.609375 C 0.96875 2.609375 0.976562 2.613281 0.976562 2.625 M 1.019531 2.671875 C 1.019531 2.679688 1.007812 2.6875 0.996094 2.6875 C 0.980469 2.6875 0.972656 2.679688 0.972656 2.671875 C 0.972656 2.664062 0.980469 2.65625 0.996094 2.65625 C 1.007812 2.65625 1.019531 2.664062 1.019531 2.671875 M 1.054688 2.726562 C 1.054688 2.738281 1.046875 2.746094 1.03125 2.746094 C 1.019531 2.746094 1.007812 2.738281 1.007812 2.726562 C 1.007812 2.71875 1.019531 2.710938 1.03125 2.710938 C 1.046875 2.710938 1.054688 2.71875 1.054688 2.726562 M 1.097656 2.78125 C 1.097656 2.789062 1.085938 2.796875 1.074219 2.796875 C 1.058594 2.796875 1.046875 2.789062 1.046875 2.78125 C 1.046875 2.769531 1.058594 2.761719 1.074219 2.761719 C 1.085938 2.761719 1.097656 2.769531 1.097656 2.78125 M 1.152344 2.824219 C 1.152344 2.832031 1.140625 2.839844 1.128906 2.839844 C 1.113281 2.839844 1.105469 2.832031 1.105469 2.824219 C 1.105469 2.816406 1.113281 2.808594 1.128906 2.808594 C 1.140625 2.808594 1.152344 2.816406 1.152344 2.824219 "/>
<path style=" stroke:none;fill-rule:nonzero;fill:rgb(77.254902%,90.196078%,85.490196%);fill-opacity:1;" d="M 1.230469 2.855469 C 1.230469 2.863281 1.21875 2.871094 1.207031 2.871094 C 1.191406 2.871094 1.183594 2.863281 1.183594 2.855469 C 1.183594 2.84375 1.191406 2.835938 1.207031 2.835938 C 1.21875 2.835938 1.230469 2.84375 1.230469 2.855469 "/>
<path style=" stroke:none;fill-rule:nonzero;fill:rgb(77.254902%,90.196078%,85.490196%);fill-opacity:1;" d="M 1.308594 2.855469 C 1.308594 2.863281 1.296875 2.871094 1.285156 2.871094 C 1.269531 2.871094 1.257812 2.863281 1.257812 2.855469 C 1.257812 2.84375 1.269531 2.835938 1.285156 2.835938 C 1.296875 2.835938 1.308594 2.84375 1.308594 2.855469 "/>
<path style=" stroke:none;fill-rule:nonzero;fill:rgb(77.254902%,90.196078%,85.490196%);fill-opacity:1;" d="M 1.386719 2.839844 C 1.386719 2.851562 1.375 2.859375 1.363281 2.859375 C 1.347656 2.859375 1.339844 2.851562 1.339844 2.839844 C 1.339844 2.832031 1.347656 2.824219 1.363281 2.824219 C 1.375 2.824219 1.386719 2.832031 1.386719 2.839844 "/>
<path style=" stroke:none;fill-rule:nonzero;fill:rgb(0%,0%,0%);fill-opacity:1;" d="M 4.222656 1.761719 C 4.3125 1.761719 4.417969 1.738281 4.539062 1.695312 L 4.539062 1.988281 C 4.511719 1.996094 4.472656 2.007812 4.425781 2.019531 C 4.4375 2.0625 4.445312 2.101562 4.445312 2.140625 C 4.445312 2.261719 4.410156 2.367188 4.335938 2.457031 C 4.265625 2.546875 4.164062 2.601562 4.054688 2.617188 C 3.980469 2.628906 3.941406 2.667969 3.941406 2.738281 C 3.941406 2.761719 3.953125 2.789062 3.976562 2.8125 C 4.011719 2.847656 4.058594 2.871094 4.121094 2.878906 C 4.390625 2.921875 4.527344 3.035156 4.527344 3.21875 C 4.527344 3.511719 4.351562 3.660156 4 3.660156 C 3.855469 3.660156 3.738281 3.632812 3.644531 3.582031 C 3.53125 3.519531 3.46875 3.417969 3.46875 3.277344 C 3.46875 3.121094 3.558594 3.011719 3.734375 2.953125 L 3.734375 2.945312 C 3.667969 2.90625 3.636719 2.847656 3.636719 2.765625 C 3.636719 2.660156 3.667969 2.59375 3.730469 2.566406 L 3.730469 2.558594 C 3.667969 2.539062 3.613281 2.492188 3.566406 2.417969 C 3.515625 2.339844 3.488281 2.253906 3.488281 2.160156 C 3.488281 2.027344 3.535156 1.910156 3.632812 1.820312 C 3.722656 1.738281 3.84375 1.691406 3.964844 1.691406 C 4.054688 1.691406 4.144531 1.714844 4.222656 1.761719 M 3.796875 2.164062 C 3.796875 2.296875 3.859375 2.359375 3.976562 2.359375 C 4.09375 2.359375 4.152344 2.292969 4.152344 2.160156 C 4.152344 2.105469 4.136719 2.058594 4.109375 2.019531 C 4.078125 1.976562 4.035156 1.953125 3.976562 1.953125 C 3.859375 1.953125 3.796875 2.023438 3.796875 2.164062 M 4.234375 3.257812 C 4.234375 3.160156 4.15625 3.109375 3.996094 3.109375 C 3.84375 3.109375 3.765625 3.160156 3.765625 3.261719 C 3.765625 3.359375 3.851562 3.410156 4.015625 3.410156 C 4.164062 3.410156 4.234375 3.359375 4.234375 3.257812 M 4.859375 1.484375 C 4.804688 1.484375 4.757812 1.464844 4.714844 1.421875 C 4.679688 1.382812 4.660156 1.332031 4.660156 1.277344 C 4.660156 1.21875 4.679688 1.167969 4.714844 1.125 C 4.757812 1.082031 4.804688 1.0625 4.859375 1.0625 C 4.910156 1.0625 4.957031 1.082031 4.996094 1.125 C 5.035156 1.167969 5.054688 1.21875 5.054688 1.277344 C 5.054688 1.332031 5.035156 1.382812 4.996094 1.421875 C 4.957031 1.464844 4.910156 1.484375 4.859375 1.484375 M 4.695312 2.96875 C 4.699219 2.933594 4.703125 2.867188 4.703125 2.777344 L 4.703125 1.894531 L 4.695312 1.707031 L 5.015625 1.707031 C 5.011719 1.742188 5.011719 1.804688 5.011719 1.886719 L 5.011719 2.757812 L 5.015625 2.96875 L 4.695312 2.96875 M 5.613281 1.707031 L 5.859375 1.707031 L 5.859375 1.984375 C 5.839844 1.984375 5.824219 1.980469 5.804688 1.980469 L 5.734375 1.976562 L 5.613281 1.976562 L 5.613281 2.507812 C 5.613281 2.632812 5.652344 2.695312 5.738281 2.695312 C 5.792969 2.699219 5.847656 2.679688 5.894531 2.648438 L 5.894531 2.933594 C 5.828125 2.96875 5.742188 2.988281 5.644531 2.988281 C 5.503906 2.988281 5.410156 2.9375 5.355469 2.839844 C 5.316406 2.765625 5.296875 2.652344 5.296875 2.492188 L 5.296875 1.984375 L 5.300781 1.984375 L 5.300781 1.976562 L 5.257812 1.972656 C 5.222656 1.976562 5.191406 1.976562 5.160156 1.984375 L 5.160156 1.707031 L 5.300781 1.707031 L 5.300781 1.597656 C 5.300781 1.542969 5.296875 1.5 5.289062 1.46875 L 5.621094 1.46875 C 5.613281 1.503906 5.613281 1.546875 5.613281 1.589844 L 5.613281 1.707031 M 6.621094 1.699219 C 6.539062 1.699219 6.453125 1.726562 6.363281 1.785156 L 6.363281 1.289062 L 6.371094 1.074219 L 6.046875 1.074219 C 6.050781 1.105469 6.054688 1.175781 6.054688 1.289062 L 6.054688 2.789062 L 6.046875 2.96875 L 6.375 2.96875 C 6.375 2.964844 6.375 2.941406 6.371094 2.902344 L 6.363281 2.789062 L 6.363281 2.089844 C 6.429688 2.027344 6.496094 1.996094 6.558594 1.996094 C 6.628906 1.996094 6.683594 2.035156 6.722656 2.105469 C 6.75 2.164062 6.765625 2.234375 6.765625 2.320312 L 6.761719 2.703125 C 6.761719 2.765625 6.757812 2.855469 6.75 2.96875 L 7.09375 2.96875 C 7.082031 2.921875 7.082031 2.835938 7.082031 2.707031 L 7.082031 2.320312 C 7.082031 2.15625 7.042969 2.015625 6.96875 1.898438 C 6.886719 1.765625 6.769531 1.699219 6.621094 1.699219 M 7.710938 2.980469 C 7.5625 2.980469 7.453125 2.914062 7.378906 2.78125 C 7.324219 2.675781 7.292969 2.53125 7.292969 2.359375 L 7.292969 1.96875 L 7.28125 1.707031 L 7.625 1.707031 C 7.617188 1.75 7.613281 1.839844 7.613281 1.976562 L 7.609375 2.359375 C 7.609375 2.46875 7.621094 2.542969 7.644531 2.59375 C 7.675781 2.652344 7.726562 2.679688 7.800781 2.679688 C 7.855469 2.679688 7.914062 2.648438 7.980469 2.585938 L 7.980469 1.886719 C 7.980469 1.847656 7.980469 1.8125 7.976562 1.777344 L 7.96875 1.707031 L 8.300781 1.707031 C 8.296875 1.738281 8.292969 1.800781 8.292969 1.886719 L 8.292969 2.757812 L 8.300781 2.96875 L 7.992188 2.96875 L 7.992188 2.867188 C 7.90625 2.941406 7.8125 2.980469 7.714844 2.980469 M 9.109375 2.976562 C 9.011719 2.980469 8.917969 2.9375 8.855469 2.867188 L 8.855469 2.96875 L 8.554688 2.96875 C 8.558594 2.9375 8.5625 2.878906 8.5625 2.789062 L 8.5625 1.289062 L 8.554688 1.074219 L 8.878906 1.074219 C 8.875 1.109375 8.871094 1.179688 8.871094 1.289062 L 8.871094 1.78125 C 8.960938 1.726562 9.042969 1.699219 9.128906 1.699219 C 9.277344 1.699219 9.394531 1.765625 9.480469 1.898438 C 9.550781 2.011719 9.589844 2.152344 9.589844 2.316406 C 9.589844 2.488281 9.550781 2.632812 9.476562 2.757812 C 9.382812 2.90625 9.261719 2.976562 9.109375 2.976562 M 9.066406 1.996094 C 9.003906 1.996094 8.941406 2.027344 8.871094 2.089844 L 8.871094 2.582031 C 8.933594 2.640625 8.992188 2.671875 9.050781 2.671875 C 9.125 2.671875 9.179688 2.628906 9.21875 2.550781 C 9.25 2.484375 9.265625 2.40625 9.265625 2.320312 C 9.265625 2.105469 9.199219 1.996094 9.066406 1.996094 "/>
</g>
</svg>
