<?xml version="1.0" encoding="UTF-8"?>
<svg xmlns="http://www.w3.org/2000/svg" xmlns:xlink="http://www.w3.org/1999/xlink" width="10px" height="px" viewBox="0 0 10 10" version="1.1">
<g id="surface1">
<path style=" stroke:none;fill-rule:nonzero;fill:rgb(0%,0%,0%);fill-opacity:1;" d="M 0.746094 0 C 0.65625 0 0.585938 0.0742188 0.59375 0.167969 L 1.371094 8.855469 C 1.378906 8.949219 1.457031 9.042969 1.546875 9.070312 L 4.832031 9.980469 C 4.921875 10.007812 5.066406 10.007812 5.15625 9.980469 L 8.453125 9.066406 C 8.542969 9.042969 8.621094 8.949219 8.628906 8.855469 L 9.40625 0.167969 C 9.414062 0.0742188 9.34375 0 9.253906 0 Z M 7.753906 1.992188 C 7.746094 2.074219 7.734375 2.214844 7.726562 2.308594 L 7.707031 2.535156 C 7.699219 2.628906 7.6875 2.757812 7.679688 2.828125 C 7.675781 2.894531 7.667969 2.953125 7.667969 2.953125 C 7.667969 2.953125 7.589844 2.953125 7.5 2.953125 L 5.167969 2.953125 C 5.074219 2.953125 5 2.953125 5 2.953125 C 4.996094 2.953125 4.921875 2.953125 4.828125 2.953125 L 3.601562 2.953125 C 3.507812 2.953125 3.441406 3.027344 3.449219 3.117188 L 3.519531 3.917969 C 3.527344 4.011719 3.609375 4.085938 3.703125 4.085938 L 4.828125 4.085938 C 4.921875 4.085938 4.996094 4.085938 5 4.085938 C 5 4.085938 5.074219 4.085938 5.167969 4.085938 L 7.101562 4.085938 C 7.195312 4.085938 7.335938 4.085938 7.417969 4.085938 C 7.5 4.085938 7.5625 4.152344 7.554688 4.234375 C 7.546875 4.316406 7.535156 4.457031 7.527344 4.546875 L 7.296875 7.128906 C 7.289062 7.222656 7.277344 7.335938 7.273438 7.390625 C 7.269531 7.441406 7.191406 7.503906 7.105469 7.527344 L 5.160156 8.066406 C 5.074219 8.089844 5 8.109375 4.996094 8.109375 C 4.996094 8.113281 4.921875 8.089844 4.832031 8.066406 L 2.890625 7.527344 C 2.800781 7.503906 2.722656 7.40625 2.714844 7.316406 L 2.589844 5.910156 C 2.578125 5.820312 2.648438 5.746094 2.742188 5.746094 L 2.917969 5.746094 C 3.007812 5.746094 3.160156 5.746094 3.253906 5.746094 L 3.515625 5.746094 C 3.609375 5.746094 3.691406 5.820312 3.699219 5.910156 L 3.746094 6.460938 C 3.757812 6.550781 3.835938 6.648438 3.925781 6.671875 L 4.832031 6.917969 C 4.921875 6.941406 4.996094 6.960938 4.996094 6.960938 C 4.996094 6.960938 5.070312 6.941406 5.15625 6.917969 L 6.070312 6.671875 C 6.15625 6.644531 6.238281 6.550781 6.246094 6.460938 L 6.34375 5.359375 C 6.351562 5.265625 6.285156 5.191406 6.191406 5.191406 L 5.167969 5.191406 C 5.074219 5.191406 5 5.191406 5 5.191406 C 4.996094 5.191406 4.921875 5.191406 4.828125 5.191406 L 2.691406 5.191406 C 2.597656 5.191406 2.515625 5.117188 2.507812 5.027344 L 2.265625 2.308594 C 2.257812 2.214844 2.246094 2.074219 2.238281 1.992188 C 2.230469 1.910156 2.300781 1.84375 2.390625 1.84375 L 4.828125 1.84375 C 4.921875 1.84375 4.996094 1.84375 5 1.84375 C 5 1.84375 5.074219 1.84375 5.167969 1.84375 L 7.601562 1.84375 C 7.691406 1.84375 7.761719 1.910156 7.753906 1.992188 Z M 7.753906 1.992188 "/>
</g>
</svg>
