<?xml version="1.0" encoding="UTF-8"?>
<svg xmlns="http://www.w3.org/2000/svg" xmlns:xlink="http://www.w3.org/1999/xlink" width="10px" height="px" viewBox="0 0 10 10" version="1.1">
<g id="surface1">
<path style=" stroke:none;fill-rule:nonzero;fill:rgb(30.588235%,47.058824%,58.823529%);fill-opacity:1;" d="M 3.632812 7.730469 C 3.632812 7.730469 3.246094 7.964844 3.898438 8.03125 C 4.683594 8.132812 5.101562 8.117188 5.96875 7.949219 C 6.144531 8.054688 6.328125 8.144531 6.519531 8.214844 C 4.566406 9.050781 2.09375 8.164062 3.632812 7.730469 Z M 3.382812 6.644531 C 3.382812 6.644531 2.964844 6.964844 3.617188 7.03125 C 4.46875 7.113281 5.136719 7.128906 6.289062 6.898438 C 6.398438 7.011719 6.535156 7.097656 6.6875 7.148438 C 4.332031 7.847656 1.695312 7.214844 3.382812 6.644531 Z M 7.992188 8.550781 C 7.992188 8.550781 8.273438 8.78125 7.671875 8.964844 C 6.554688 9.300781 2.980469 9.402344 1.980469 8.964844 C 1.628906 8.816406 2.296875 8.597656 2.511719 8.566406 C 2.726562 8.515625 2.84375 8.515625 2.84375 8.515625 C 2.460938 8.25 0.289062 9.066406 1.742188 9.300781 C 5.734375 9.953125 9.023438 9.015625 7.988281 8.550781 Z M 3.8125 5.511719 C 3.8125 5.511719 1.992188 5.945312 3.160156 6.09375 C 3.664062 6.160156 4.648438 6.144531 5.566406 6.078125 C 6.316406 6.011719 7.070312 5.878906 7.070312 5.878906 C 7.070312 5.878906 6.800781 5.996094 6.617188 6.113281 C 4.765625 6.597656 1.207031 6.378906 2.226562 5.878906 C 3.09375 5.460938 3.8125 5.511719 3.8125 5.511719 Z M 7.070312 7.332031 C 8.9375 6.363281 8.070312 5.425781 7.46875 5.542969 C 7.320312 5.578125 7.253906 5.609375 7.253906 5.609375 C 7.253906 5.609375 7.300781 5.511719 7.417969 5.476562 C 8.605469 5.058594 9.539062 6.730469 7.035156 7.378906 C 7.035156 7.378906 7.050781 7.363281 7.066406 7.332031 Z M 3.996094 9.96875 C 5.800781 10.085938 8.554688 9.902344 8.621094 9.050781 C 8.621094 9.050781 8.488281 9.382812 7.136719 9.632812 C 5.601562 9.917969 3.695312 9.882812 2.578125 9.699219 C 2.578125 9.699219 2.8125 9.902344 3.996094 9.96875 Z M 3.996094 9.96875 "/>
<path style=" stroke:none;fill-rule:nonzero;fill:rgb(96.078431%,50.980392%,9.803922%);fill-opacity:1;" d="M 5.9375 0 C 5.9375 0 6.972656 1.050781 4.953125 2.636719 C 3.332031 3.925781 4.585938 4.660156 4.953125 5.492188 C 4 4.640625 3.316406 3.890625 3.78125 3.191406 C 4.46875 2.152344 6.355469 1.65625 5.9375 0 Z M 5.40625 4.792969 C 5.890625 5.34375 5.273438 5.84375 5.273438 5.84375 C 5.273438 5.84375 6.507812 5.210938 5.9375 4.425781 C 5.421875 3.671875 5.019531 3.304688 7.191406 2.054688 C 7.191406 2.054688 3.769531 2.90625 5.40625 4.792969 Z M 5.40625 4.792969 "/>
</g>
</svg>
