<?xml version="1.0" encoding="UTF-8"?>
<svg xmlns="http://www.w3.org/2000/svg" xmlns:xlink="http://www.w3.org/1999/xlink" width="10px" height="px" viewBox="0 0 10 10" version="1.1">
<g id="surface1">
<path style=" stroke:none;fill-rule:nonzero;fill:rgb(33.333333%,33.333333%,53.333333%);fill-opacity:1;" d="M 0.242188 6.921875 C 0.242188 6.773438 0.261719 6.644531 0.304688 6.542969 C 0.34375 6.445312 0.40625 6.359375 0.488281 6.289062 C 0.566406 6.222656 0.65625 6.175781 0.753906 6.148438 C 0.859375 6.121094 0.96875 6.105469 1.085938 6.105469 C 1.195312 6.105469 1.300781 6.121094 1.402344 6.148438 C 1.503906 6.179688 1.59375 6.226562 1.671875 6.289062 C 1.75 6.351562 1.808594 6.4375 1.855469 6.542969 C 1.898438 6.644531 1.921875 6.773438 1.921875 6.921875 C 1.921875 7.066406 1.898438 7.1875 1.855469 7.292969 C 1.8125 7.386719 1.75 7.476562 1.671875 7.546875 C 1.59375 7.613281 1.503906 7.660156 1.402344 7.6875 C 1.300781 7.722656 1.195312 7.738281 1.085938 7.738281 C 0.96875 7.738281 0.859375 7.722656 0.753906 7.6875 C 0.65625 7.660156 0.5625 7.613281 0.488281 7.546875 C 0.410156 7.476562 0.347656 7.394531 0.304688 7.292969 C 0.261719 7.1875 0.242188 7.066406 0.242188 6.921875 M 2.945312 9.96875 C 2.789062 9.96875 2.636719 9.957031 2.472656 9.933594 C 2.308594 9.910156 2.171875 9.882812 2.0625 9.847656 L 2.0625 8.695312 C 2.164062 8.730469 2.257812 8.75 2.34375 8.765625 C 2.441406 8.78125 2.539062 8.789062 2.636719 8.789062 C 2.71875 8.789062 2.792969 8.777344 2.863281 8.75 C 2.9375 8.726562 3.003906 8.683594 3.050781 8.621094 C 3.105469 8.558594 3.148438 8.476562 3.179688 8.371094 C 3.210938 8.269531 3.226562 8.136719 3.226562 7.972656 L 3.226562 2.246094 L 4.691406 2.246094 L 4.691406 8.1875 C 4.691406 8.433594 4.660156 8.664062 4.59375 8.875 C 4.539062 9.085938 4.433594 9.277344 4.292969 9.4375 C 4.15625 9.601562 3.976562 9.730469 3.753906 9.820312 C 3.535156 9.914062 3.265625 9.960938 2.949219 9.960938 M 3.167969 0.855469 C 3.167969 0.714844 3.1875 0.601562 3.230469 0.511719 C 3.273438 0.417969 3.328125 0.34375 3.398438 0.289062 C 3.472656 0.230469 3.554688 0.191406 3.652344 0.167969 C 3.75 0.148438 3.855469 0.136719 3.964844 0.136719 C 4.066406 0.136719 4.171875 0.144531 4.269531 0.167969 C 4.363281 0.191406 4.449219 0.230469 4.519531 0.289062 C 4.597656 0.347656 4.65625 0.421875 4.691406 0.511719 C 4.738281 0.601562 4.761719 0.714844 4.761719 0.855469 C 4.761719 0.988281 4.738281 1.101562 4.691406 1.199219 C 4.652344 1.289062 4.59375 1.367188 4.519531 1.421875 C 4.445312 1.480469 4.359375 1.519531 4.269531 1.542969 C 4.171875 1.566406 4.066406 1.578125 3.964844 1.578125 C 3.855469 1.578125 3.75 1.566406 3.652344 1.542969 C 3.5625 1.519531 3.472656 1.476562 3.398438 1.421875 C 3.328125 1.363281 3.273438 1.289062 3.230469 1.199219 C 3.1875 1.105469 3.167969 0.992188 3.167969 0.855469 M 9.769531 6.015625 C 9.769531 6.296875 9.714844 6.542969 9.613281 6.753906 C 9.511719 6.964844 9.363281 7.144531 9.175781 7.28125 C 8.984375 7.421875 8.757812 7.527344 8.488281 7.597656 C 8.21875 7.667969 7.921875 7.703125 7.585938 7.703125 C 7.410156 7.703125 7.25 7.699219 7.097656 7.683594 C 6.957031 7.675781 6.8125 7.660156 6.671875 7.632812 C 6.539062 7.605469 6.40625 7.574219 6.28125 7.535156 C 6.152344 7.496094 6.027344 7.449219 5.90625 7.390625 L 5.90625 6.183594 C 6.039062 6.25 6.179688 6.308594 6.328125 6.367188 L 6.773438 6.511719 L 7.199219 6.601562 C 7.328125 6.621094 7.457031 6.632812 7.585938 6.636719 C 7.71875 6.636719 7.832031 6.625 7.921875 6.601562 C 8.015625 6.574219 8.089844 6.539062 8.148438 6.5 C 8.207031 6.457031 8.253906 6.40625 8.277344 6.34375 C 8.304688 6.285156 8.320312 6.21875 8.320312 6.152344 C 8.320312 6.085938 8.308594 6.027344 8.289062 5.976562 C 8.269531 5.921875 8.226562 5.863281 8.148438 5.808594 C 8.074219 5.746094 7.964844 5.683594 7.820312 5.605469 L 7.25 5.324219 L 6.640625 5.011719 C 6.472656 4.90625 6.332031 4.792969 6.21875 4.664062 C 6.109375 4.535156 6.027344 4.386719 5.976562 4.226562 C 5.921875 4.058594 5.894531 3.863281 5.894531 3.636719 C 5.894531 3.386719 5.941406 3.167969 6.039062 2.984375 C 6.132812 2.796875 6.273438 2.636719 6.445312 2.515625 C 6.621094 2.390625 6.832031 2.296875 7.078125 2.234375 C 7.328125 2.167969 7.605469 2.136719 7.90625 2.136719 C 8.226562 2.136719 8.53125 2.175781 8.820312 2.246094 C 9.105469 2.320312 9.402344 2.429688 9.707031 2.578125 L 9.265625 3.613281 C 9.023438 3.5 8.789062 3.40625 8.570312 3.332031 C 8.355469 3.257812 8.132812 3.222656 7.910156 3.222656 C 7.710938 3.222656 7.566406 3.257812 7.476562 3.328125 C 7.390625 3.398438 7.347656 3.492188 7.347656 3.613281 C 7.347656 3.679688 7.359375 3.738281 7.382812 3.789062 C 7.402344 3.835938 7.449219 3.886719 7.515625 3.945312 C 7.582031 3.996094 7.675781 4.050781 7.796875 4.117188 L 8.273438 4.339844 L 8.886719 4.636719 C 9.058594 4.726562 9.214844 4.835938 9.355469 4.96875 C 9.488281 5.09375 9.589844 5.242188 9.660156 5.40625 C 9.730469 5.570312 9.765625 5.773438 9.765625 6.011719 "/>
</g>
</svg>
