<?xml version="1.0" encoding="UTF-8"?>
<svg xmlns="http://www.w3.org/2000/svg" xmlns:xlink="http://www.w3.org/1999/xlink" width="10px" height="px" viewBox="0 0 10 5" version="1.1">
<g id="surface1">
<path style=" stroke:none;fill-rule:nonzero;fill:rgb(0%,0%,0%);fill-opacity:1;" d="M 1.683594 2.953125 L 1.683594 3.261719 L 0.730469 3.261719 L 0.730469 1.738281 L 1.066406 1.738281 L 1.066406 2.953125 Z M 1.832031 2.230469 L 2.152344 2.230469 L 2.152344 3.261719 L 1.832031 3.261719 Z M 1.992188 1.714844 C 2.09375 1.714844 2.175781 1.796875 2.175781 1.902344 C 2.175781 2.003906 2.09375 2.085938 1.992188 2.085938 C 1.886719 2.085938 1.804688 2.003906 1.804688 1.902344 C 1.804688 1.796875 1.886719 1.714844 1.992188 1.714844 M 4.175781 2.226562 L 4.570312 2.226562 L 4.148438 2.707031 L 4.558594 3.261719 L 4.15625 3.261719 L 3.816406 2.75 L 3.8125 2.75 L 3.8125 3.261719 L 3.492188 3.261719 L 3.492188 1.738281 L 3.8125 1.738281 L 3.8125 2.648438 Z M 2.328125 2.230469 L 2.636719 2.230469 L 2.636719 2.371094 L 2.640625 2.371094 C 2.683594 2.289062 2.789062 2.203125 2.945312 2.203125 C 3.269531 2.203125 3.328125 2.417969 3.328125 2.695312 L 3.328125 3.261719 L 3.007812 3.261719 L 3.007812 2.757812 C 3.007812 2.640625 3.007812 2.484375 2.839844 2.484375 C 2.675781 2.484375 2.648438 2.617188 2.648438 2.75 L 2.648438 3.261719 L 2.328125 3.261719 Z M 5.242188 2.625 C 5.246094 2.519531 5.164062 2.429688 5.046875 2.429688 C 4.90625 2.429688 4.828125 2.523438 4.820312 2.625 Z M 5.515625 3.082031 C 5.414062 3.214844 5.242188 3.289062 5.078125 3.289062 C 4.757812 3.289062 4.5 3.074219 4.5 2.742188 C 4.5 2.410156 4.757812 2.199219 5.078125 2.199219 C 5.375 2.199219 5.5625 2.410156 5.5625 2.742188 L 5.5625 2.84375 L 4.820312 2.84375 C 4.847656 2.964844 4.9375 3.042969 5.0625 3.042969 C 5.167969 3.042969 5.238281 2.992188 5.289062 2.917969 Z M 6.234375 2.480469 C 6.074219 2.480469 5.976562 2.585938 5.976562 2.742188 C 5.976562 2.898438 6.074219 3.003906 6.234375 3.003906 C 6.394531 3.003906 6.488281 2.898438 6.488281 2.742188 C 6.488281 2.585938 6.394531 2.480469 6.234375 2.480469 M 6.785156 3.261719 L 6.488281 3.261719 L 6.488281 3.125 L 6.484375 3.125 C 6.4375 3.199219 6.3125 3.285156 6.167969 3.285156 C 5.859375 3.285156 5.65625 3.066406 5.65625 2.75 C 5.65625 2.460938 5.835938 2.195312 6.128906 2.195312 C 6.261719 2.195312 6.386719 2.234375 6.460938 2.332031 L 6.464844 2.332031 L 6.464844 1.738281 L 6.785156 1.738281 Z M 6.785156 3.261719 "/>
<path style=" stroke:none;fill-rule:nonzero;fill:rgb(0.392157%,46.666667%,70.980392%);fill-opacity:1;" d="M 9.109375 1.417969 L 7.265625 1.417969 C 7.175781 1.417969 7.105469 1.488281 7.105469 1.574219 L 7.105469 3.425781 C 7.105469 3.511719 7.175781 3.582031 7.265625 3.582031 L 9.109375 3.582031 C 9.195312 3.582031 9.269531 3.511719 9.269531 3.425781 L 9.269531 1.574219 C 9.269531 1.488281 9.195312 1.417969 9.109375 1.417969 Z M 9.109375 1.417969 "/>
<path style=" stroke:none;fill-rule:nonzero;fill:rgb(100%,100%,100%);fill-opacity:1;" d="M 7.425781 2.230469 L 7.746094 2.230469 L 7.746094 3.261719 L 7.425781 3.261719 Z M 7.585938 1.714844 C 7.6875 1.714844 7.773438 1.800781 7.773438 1.902344 C 7.773438 2.003906 7.6875 2.089844 7.585938 2.089844 C 7.484375 2.089844 7.402344 2.003906 7.398438 1.902344 C 7.402344 1.800781 7.484375 1.714844 7.585938 1.714844 M 7.949219 2.230469 L 8.253906 2.230469 L 8.253906 2.371094 L 8.261719 2.371094 C 8.300781 2.289062 8.40625 2.203125 8.5625 2.203125 C 8.886719 2.203125 8.949219 2.417969 8.949219 2.695312 L 8.949219 3.261719 L 8.628906 3.261719 L 8.628906 2.757812 C 8.628906 2.640625 8.625 2.484375 8.460938 2.484375 C 8.292969 2.484375 8.269531 2.617188 8.269531 2.75 L 8.269531 3.261719 L 7.949219 3.261719 Z M 7.949219 2.230469 "/>
</g>
</svg>
