<?xml version="1.0" encoding="UTF-8"?>
<svg xmlns="http://www.w3.org/2000/svg" xmlns:xlink="http://www.w3.org/1999/xlink" width="10px" height="px" viewBox="0 0 10 10" version="1.1">
<g id="surface1">
<path style=" stroke:none;fill-rule:nonzero;fill:rgb(54.901961%,78.431373%,29.411765%);fill-opacity:1;" d="M 4.578125 0.132812 C 4.828125 -0.0078125 5.148438 -0.0078125 5.390625 0.132812 L 9.125 2.238281 C 9.359375 2.367188 9.515625 2.628906 9.511719 2.898438 L 9.511719 7.117188 C 9.515625 7.398438 9.34375 7.664062 9.097656 7.792969 L 5.382812 9.886719 C 5.125 10.027344 4.808594 10.019531 4.558594 9.863281 L 3.445312 9.21875 C 3.367188 9.175781 3.285156 9.136719 3.230469 9.066406 C 3.277344 9 3.363281 8.992188 3.429688 8.964844 C 3.585938 8.914062 3.726562 8.839844 3.871094 8.761719 C 3.90625 8.734375 3.949219 8.746094 3.984375 8.765625 L 4.933594 9.316406 C 5.003906 9.355469 5.070312 9.304688 5.128906 9.269531 L 8.773438 7.214844 C 8.820312 7.191406 8.84375 7.144531 8.839844 7.09375 L 8.839844 2.917969 C 8.84375 2.859375 8.8125 2.808594 8.761719 2.785156 L 5.058594 0.703125 C 5.015625 0.671875 4.957031 0.671875 4.914062 0.699219 L 1.214844 2.789062 C 1.167969 2.8125 1.132812 2.863281 1.136719 2.921875 L 1.136719 7.097656 C 1.132812 7.148438 1.160156 7.195312 1.207031 7.214844 L 2.195312 7.773438 C 2.378906 7.875 2.605469 7.929688 2.8125 7.855469 C 2.996094 7.789062 3.117188 7.613281 3.113281 7.414062 L 3.117188 3.261719 C 3.109375 3.203125 3.167969 3.148438 3.230469 3.15625 L 3.703125 3.15625 C 3.765625 3.15625 3.816406 3.222656 3.808594 3.28125 L 3.804688 7.460938 C 3.804688 7.832031 3.652344 8.238281 3.3125 8.417969 C 2.886719 8.636719 2.363281 8.59375 1.945312 8.382812 L 0.882812 7.792969 C 0.632812 7.667969 0.464844 7.398438 0.46875 7.121094 L 0.46875 2.902344 C 0.46875 2.621094 0.621094 2.367188 0.867188 2.230469 Z M 5.65625 3.058594 C 6.195312 3.027344 6.773438 3.039062 7.257812 3.304688 C 7.636719 3.507812 7.84375 3.933594 7.851562 4.351562 C 7.839844 4.410156 7.78125 4.441406 7.726562 4.4375 C 7.570312 4.4375 7.414062 4.4375 7.257812 4.433594 C 7.191406 4.4375 7.152344 4.375 7.144531 4.316406 C 7.097656 4.117188 6.988281 3.917969 6.800781 3.824219 C 6.511719 3.679688 6.179688 3.6875 5.863281 3.6875 C 5.632812 3.703125 5.386719 3.722656 5.191406 3.855469 C 5.042969 3.957031 4.996094 4.167969 5.050781 4.332031 C 5.101562 4.453125 5.238281 4.488281 5.351562 4.523438 C 6 4.695312 6.691406 4.679688 7.328125 4.902344 C 7.59375 4.992188 7.851562 5.171875 7.941406 5.449219 C 8.058594 5.820312 8.007812 6.261719 7.746094 6.558594 C 7.53125 6.804688 7.21875 6.933594 6.910156 7.007812 C 6.496094 7.101562 6.066406 7.105469 5.648438 7.0625 C 5.253906 7.019531 4.84375 6.914062 4.539062 6.644531 C 4.277344 6.417969 4.148438 6.066406 4.164062 5.726562 C 4.164062 5.667969 4.222656 5.628906 4.277344 5.632812 L 4.746094 5.632812 C 4.808594 5.628906 4.855469 5.683594 4.859375 5.742188 C 4.886719 5.929688 4.960938 6.132812 5.125 6.242188 C 5.445312 6.449219 5.847656 6.4375 6.214844 6.441406 C 6.519531 6.429688 6.859375 6.425781 7.109375 6.222656 C 7.242188 6.109375 7.28125 5.917969 7.242188 5.75 C 7.207031 5.613281 7.054688 5.546875 6.929688 5.5 C 6.289062 5.296875 5.59375 5.371094 4.957031 5.140625 C 4.699219 5.050781 4.449219 4.878906 4.351562 4.613281 C 4.210938 4.238281 4.273438 3.773438 4.566406 3.484375 C 4.847656 3.199219 5.261719 3.089844 5.652344 3.050781 Z M 5.65625 3.058594 "/>
</g>
</svg>
