<?xml version="1.0" encoding="UTF-8"?>
<svg xmlns="http://www.w3.org/2000/svg" xmlns:xlink="http://www.w3.org/1999/xlink" width="10px" height="px" viewBox="0 0 10 10" version="1.1">
<g id="surface1">
<path style=" stroke:none;fill-rule:nonzero;fill:rgb(100%,100%,100%);fill-opacity:1;" d="M 5 0 C 7.761719 0 10 2.238281 10 5 C 10 7.761719 7.761719 10 5 10 C 2.238281 10 0 7.761719 0 5 C 0 2.238281 2.238281 0 5 0 Z M 5 0 "/>
<path style=" stroke:none;fill-rule:nonzero;fill:rgb(0%,0%,0%);fill-opacity:1;" d="M 6.78125 0.832031 C 6.457031 0.835938 6.136719 0.882812 5.824219 0.972656 L 5.800781 0.980469 C 5.605469 0.945312 5.40625 0.925781 5.207031 0.921875 C 4.800781 0.914062 4.449219 1.015625 4.164062 1.179688 C 3.886719 1.082031 3.304688 0.917969 2.695312 0.949219 C 2.269531 0.972656 1.808594 1.101562 1.464844 1.464844 C 1.121094 1.828125 0.9375 2.390625 0.976562 3.152344 C 0.988281 3.363281 1.046875 3.707031 1.148438 4.152344 C 1.246094 4.597656 1.386719 5.121094 1.5625 5.59375 C 1.738281 6.070312 1.929688 6.496094 2.226562 6.789062 C 2.375 6.933594 2.582031 7.054688 2.824219 7.046875 C 2.992188 7.039062 3.148438 6.964844 3.28125 6.855469 C 3.34375 6.9375 3.414062 6.976562 3.476562 7.011719 C 3.554688 7.054688 3.632812 7.082031 3.714844 7.101562 C 3.855469 7.136719 4.101562 7.1875 4.390625 7.136719 C 4.488281 7.121094 4.589844 7.089844 4.695312 7.042969 C 4.695312 7.160156 4.703125 7.269531 4.707031 7.382812 C 4.71875 7.742188 4.730469 8.074219 4.835938 8.367188 C 4.855469 8.414062 4.902344 8.660156 5.089844 8.875 C 5.277344 9.09375 5.644531 9.226562 6.0625 9.136719 C 6.359375 9.074219 6.734375 8.960938 6.984375 8.605469 C 7.230469 8.257812 7.339844 7.753906 7.363281 6.9375 C 7.367188 6.894531 7.375 6.855469 7.382812 6.820312 L 7.441406 6.824219 L 7.445312 6.824219 C 7.761719 6.839844 8.105469 6.792969 8.390625 6.664062 C 8.640625 6.546875 8.832031 6.425781 8.972656 6.214844 C 9.007812 6.164062 9.046875 6.101562 9.054688 5.992188 C 9.066406 5.886719 9.003906 5.714844 8.902344 5.636719 C 8.695312 5.480469 8.566406 5.539062 8.425781 5.570312 C 8.289062 5.597656 8.148438 5.617188 8.007812 5.621094 C 8.410156 4.945312 8.695312 4.226562 8.863281 3.589844 C 8.957031 3.214844 9.011719 2.871094 9.019531 2.566406 C 9.023438 2.265625 8.996094 1.996094 8.816406 1.765625 C 8.25 1.042969 7.453125 0.839844 6.835938 0.835938 C 6.820312 0.835938 6.800781 0.835938 6.78125 0.835938 Z M 6.765625 1.054688 C 7.347656 1.050781 8.089844 1.214844 8.625 1.898438 C 8.746094 2.050781 8.78125 2.273438 8.777344 2.550781 C 8.773438 2.828125 8.722656 3.15625 8.628906 3.519531 C 8.445312 4.222656 8.105469 5.039062 7.621094 5.773438 C 7.640625 5.785156 7.65625 5.792969 7.675781 5.800781 C 7.777344 5.84375 8.007812 5.878906 8.464844 5.785156 C 8.582031 5.761719 8.664062 5.746094 8.753906 5.8125 C 8.796875 5.847656 8.820312 5.902344 8.816406 5.960938 C 8.8125 6 8.796875 6.042969 8.769531 6.074219 C 8.683594 6.207031 8.507812 6.335938 8.285156 6.4375 C 8.085938 6.53125 7.800781 6.578125 7.550781 6.582031 C 7.421875 6.582031 7.304688 6.574219 7.207031 6.542969 L 7.199219 6.539062 C 7.164062 6.910156 7.074219 7.636719 7.019531 7.964844 C 6.972656 8.234375 6.890625 8.445312 6.738281 8.605469 C 6.585938 8.765625 6.371094 8.859375 6.078125 8.921875 C 5.71875 9 5.457031 8.917969 5.285156 8.773438 C 5.117188 8.632812 5.039062 8.441406 4.992188 8.328125 C 4.960938 8.246094 4.945312 8.144531 4.929688 8.007812 C 4.914062 7.867188 4.898438 7.699219 4.890625 7.507812 C 4.882812 7.214844 4.878906 6.925781 4.882812 6.632812 C 4.730469 6.769531 4.542969 6.863281 4.34375 6.894531 C 4.105469 6.9375 3.890625 6.898438 3.761719 6.863281 C 3.699219 6.847656 3.640625 6.824219 3.582031 6.792969 C 3.523438 6.761719 3.46875 6.726562 3.429688 6.65625 C 3.40625 6.617188 3.402344 6.570312 3.410156 6.523438 C 3.421875 6.480469 3.449219 6.4375 3.484375 6.410156 C 3.554688 6.355469 3.644531 6.324219 3.78125 6.292969 C 4.03125 6.242188 4.117188 6.207031 4.171875 6.164062 C 4.21875 6.128906 4.269531 6.054688 4.359375 5.949219 C 4.359375 5.945312 4.359375 5.941406 4.359375 5.933594 C 4.195312 5.929688 4.039062 5.886719 3.894531 5.8125 C 3.84375 5.867188 3.578125 6.148438 3.253906 6.539062 C 3.117188 6.699219 2.964844 6.792969 2.808594 6.800781 C 2.648438 6.808594 2.503906 6.726562 2.382812 6.609375 C 2.136719 6.371094 1.945312 5.964844 1.773438 5.503906 C 1.605469 5.042969 1.464844 4.527344 1.367188 4.089844 C 1.269531 3.652344 1.210938 3.300781 1.203125 3.128906 C 1.167969 2.40625 1.335938 1.921875 1.625 1.613281 C 1.917969 1.304688 2.316406 1.191406 2.703125 1.167969 C 3.398438 1.128906 4.058594 1.371094 4.195312 1.421875 C 4.449219 1.246094 4.78125 1.136719 5.199219 1.144531 C 5.394531 1.148438 5.589844 1.171875 5.78125 1.222656 L 5.789062 1.21875 C 5.871094 1.1875 5.957031 1.164062 6.042969 1.144531 C 6.28125 1.089844 6.523438 1.058594 6.765625 1.054688 Z M 6.816406 1.289062 L 6.765625 1.289062 C 6.566406 1.289062 6.371094 1.3125 6.175781 1.355469 C 6.605469 1.546875 6.933594 1.839844 7.164062 2.136719 C 7.324219 2.339844 7.457031 2.5625 7.558594 2.804688 C 7.59375 2.894531 7.621094 2.972656 7.636719 3.03125 C 7.644531 3.0625 7.648438 3.085938 7.648438 3.113281 C 7.648438 3.128906 7.652344 3.140625 7.644531 3.164062 C 7.644531 3.164062 7.644531 3.167969 7.644531 3.167969 C 7.652344 3.472656 7.578125 3.679688 7.570312 3.96875 C 7.5625 4.179688 7.617188 4.425781 7.628906 4.695312 C 7.640625 4.949219 7.613281 5.226562 7.445312 5.5 C 7.460938 5.519531 7.472656 5.535156 7.488281 5.550781 C 7.921875 4.867188 8.234375 4.105469 8.402344 3.460938 C 8.492188 3.113281 8.539062 2.796875 8.542969 2.546875 C 8.546875 2.296875 8.5 2.117188 8.441406 2.039062 C 7.976562 1.445312 7.34375 1.292969 6.816406 1.289062 Z M 5.152344 1.378906 C 4.742188 1.378906 4.449219 1.503906 4.226562 1.6875 C 3.996094 1.878906 3.839844 2.144531 3.738281 2.410156 C 3.617188 2.730469 3.578125 3.039062 3.5625 3.25 L 3.566406 3.246094 C 3.691406 3.179688 3.851562 3.109375 4.027344 3.066406 C 4.203125 3.027344 4.390625 3.015625 4.558594 3.082031 C 4.730469 3.148438 4.871094 3.304688 4.921875 3.539062 C 5.164062 4.667969 4.84375 5.089844 4.726562 5.40625 C 4.683594 5.523438 4.644531 5.640625 4.613281 5.757812 C 4.628906 5.753906 4.640625 5.75 4.65625 5.75 C 4.742188 5.742188 4.804688 5.769531 4.84375 5.789062 C 4.964844 5.835938 5.042969 5.941406 5.089844 6.058594 C 5.101562 6.089844 5.109375 6.121094 5.113281 6.15625 C 5.117188 6.171875 5.121094 6.1875 5.121094 6.199219 C 5.105469 6.632812 5.109375 7.066406 5.125 7.5 C 5.132812 7.683594 5.144531 7.851562 5.160156 7.980469 C 5.175781 8.109375 5.195312 8.207031 5.210938 8.242188 C 5.253906 8.351562 5.320312 8.496094 5.4375 8.597656 C 5.554688 8.695312 5.722656 8.761719 6.03125 8.695312 C 6.296875 8.636719 6.460938 8.558594 6.570312 8.445312 C 6.679688 8.332031 6.746094 8.171875 6.789062 7.929688 C 6.851562 7.5625 6.976562 6.507812 6.992188 6.308594 C 6.984375 6.15625 7.007812 6.042969 7.054688 5.953125 C 7.105469 5.863281 7.179688 5.808594 7.246094 5.777344 C 7.28125 5.761719 7.3125 5.753906 7.335938 5.746094 C 7.308594 5.707031 7.28125 5.671875 7.253906 5.632812 C 7.15625 5.519531 7.078125 5.390625 7.019531 5.25 C 6.992188 5.195312 6.964844 5.140625 6.933594 5.085938 C 6.886719 5 6.828125 4.898438 6.765625 4.78125 C 6.644531 4.546875 6.511719 4.261719 6.441406 3.984375 C 6.375 3.707031 6.363281 3.421875 6.539062 3.21875 C 6.695312 3.039062 6.96875 2.964844 7.382812 3.007812 C 7.371094 2.972656 7.363281 2.941406 7.34375 2.894531 C 7.25 2.675781 7.128906 2.46875 6.980469 2.28125 C 6.632812 1.835938 6.066406 1.390625 5.195312 1.378906 Z M 2.847656 1.394531 C 2.804688 1.394531 2.757812 1.398438 2.714844 1.398438 C 2.363281 1.417969 2.035156 1.519531 1.796875 1.773438 C 1.558594 2.023438 1.402344 2.4375 1.4375 3.117188 C 1.441406 3.246094 1.5 3.609375 1.597656 4.039062 C 1.691406 4.46875 1.828125 4.976562 1.992188 5.421875 C 2.15625 5.867188 2.355469 6.257812 2.542969 6.441406 C 2.640625 6.535156 2.722656 6.570312 2.796875 6.566406 C 2.871094 6.5625 2.964844 6.519531 3.074219 6.386719 C 3.277344 6.144531 3.484375 5.90625 3.703125 5.675781 C 3.390625 5.40625 3.238281 4.992188 3.296875 4.582031 C 3.332031 4.324219 3.335938 4.085938 3.332031 3.898438 C 3.328125 3.710938 3.316406 3.589844 3.316406 3.511719 C 3.316406 3.511719 3.316406 3.507812 3.316406 3.503906 L 3.316406 3.5 C 3.316406 3.101562 3.386719 2.703125 3.523438 2.328125 C 3.617188 2.070312 3.761719 1.808594 3.980469 1.597656 C 3.765625 1.527344 3.390625 1.417969 2.980469 1.398438 C 2.933594 1.394531 2.890625 1.394531 2.847656 1.394531 Z M 7.152344 3.230469 C 6.917969 3.230469 6.785156 3.292969 6.714844 3.371094 C 6.617188 3.484375 6.605469 3.683594 6.667969 3.925781 C 6.730469 4.171875 6.855469 4.445312 6.972656 4.671875 C 7.03125 4.785156 7.089844 4.886719 7.136719 4.96875 C 7.183594 5.054688 7.214844 5.113281 7.238281 5.164062 C 7.257812 5.207031 7.277344 5.25 7.296875 5.289062 C 7.390625 5.09375 7.40625 4.90625 7.398438 4.707031 C 7.382812 4.464844 7.328125 4.214844 7.335938 3.960938 C 7.347656 3.667969 7.402344 3.472656 7.410156 3.246094 C 7.324219 3.234375 7.238281 3.230469 7.152344 3.230469 Z M 4.292969 3.269531 C 4.222656 3.269531 4.148438 3.277344 4.078125 3.292969 C 3.941406 3.328125 3.804688 3.382812 3.679688 3.449219 C 3.636719 3.472656 3.597656 3.5 3.558594 3.53125 L 3.550781 3.535156 C 3.550781 3.585938 3.5625 3.710938 3.566406 3.890625 C 3.570312 4.089844 3.566406 4.339844 3.527344 4.613281 C 3.445312 5.207031 3.875 5.699219 4.382812 5.699219 C 4.410156 5.578125 4.460938 5.457031 4.507812 5.324219 C 4.648438 4.945312 4.925781 4.667969 4.695312 3.585938 C 4.65625 3.410156 4.578125 3.339844 4.476562 3.296875 C 4.417969 3.277344 4.355469 3.269531 4.292969 3.269531 Z M 7.042969 3.339844 L 7.058594 3.339844 C 7.082031 3.339844 7.105469 3.34375 7.121094 3.347656 C 7.140625 3.351562 7.15625 3.359375 7.171875 3.367188 C 7.183594 3.375 7.191406 3.390625 7.195312 3.40625 C 7.195312 3.425781 7.191406 3.441406 7.183594 3.453125 C 7.171875 3.472656 7.160156 3.492188 7.144531 3.507812 C 7.109375 3.546875 7.0625 3.570312 7.011719 3.582031 C 6.960938 3.585938 6.910156 3.574219 6.867188 3.542969 C 6.851562 3.53125 6.835938 3.519531 6.824219 3.503906 C 6.8125 3.492188 6.804688 3.476562 6.800781 3.460938 C 6.800781 3.441406 6.804688 3.425781 6.816406 3.414062 C 6.828125 3.402344 6.84375 3.390625 6.855469 3.382812 C 6.890625 3.363281 6.9375 3.351562 6.988281 3.34375 C 7.007812 3.339844 7.023438 3.339844 7.042969 3.339844 Z M 4.328125 3.398438 C 4.34375 3.398438 4.363281 3.398438 4.382812 3.402344 C 4.4375 3.410156 4.484375 3.425781 4.519531 3.445312 C 4.539062 3.453125 4.554688 3.46875 4.566406 3.480469 C 4.582031 3.5 4.589844 3.519531 4.585938 3.539062 C 4.582031 3.5625 4.574219 3.578125 4.558594 3.59375 C 4.546875 3.613281 4.527344 3.628906 4.511719 3.640625 C 4.464844 3.671875 4.410156 3.6875 4.355469 3.679688 C 4.296875 3.667969 4.246094 3.640625 4.210938 3.601562 C 4.191406 3.582031 4.179688 3.5625 4.167969 3.542969 C 4.15625 3.523438 4.152344 3.503906 4.152344 3.480469 C 4.160156 3.445312 4.191406 3.425781 4.21875 3.414062 C 4.253906 3.402344 4.289062 3.398438 4.328125 3.398438 Z M 7.472656 5.949219 C 7.421875 5.964844 7.378906 5.972656 7.34375 5.988281 C 7.308594 6.003906 7.277344 6.03125 7.261719 6.0625 C 7.238281 6.105469 7.21875 6.175781 7.226562 6.296875 C 7.242188 6.304688 7.257812 6.316406 7.277344 6.320312 C 7.335938 6.335938 7.4375 6.351562 7.546875 6.347656 C 7.769531 6.34375 8.039062 6.292969 8.1875 6.226562 C 8.304688 6.171875 8.414062 6.097656 8.511719 6.011719 C 8.027344 6.113281 7.757812 6.085938 7.589844 6.015625 C 7.546875 6 7.507812 5.976562 7.472656 5.949219 Z M 4.683594 5.980469 L 4.675781 5.980469 C 4.660156 5.980469 4.632812 5.988281 4.582031 6.046875 C 4.460938 6.179688 4.417969 6.265625 4.316406 6.347656 C 4.21875 6.425781 4.089844 6.46875 3.828125 6.519531 C 3.746094 6.539062 3.699219 6.554688 3.667969 6.570312 C 3.679688 6.578125 3.679688 6.582031 3.695312 6.589844 C 3.730469 6.609375 3.78125 6.628906 3.820312 6.636719 C 3.929688 6.664062 4.113281 6.699219 4.304688 6.664062 C 4.496094 6.632812 4.691406 6.542969 4.863281 6.304688 C 4.890625 6.265625 4.894531 6.203125 4.871094 6.136719 C 4.847656 6.074219 4.792969 6.019531 4.753906 6.003906 C 4.734375 5.992188 4.707031 5.984375 4.683594 5.980469 Z M 4.683594 5.980469 "/>
</g>
</svg>
