<?xml version="1.0" encoding="UTF-8"?>
<svg xmlns="http://www.w3.org/2000/svg" xmlns:xlink="http://www.w3.org/1999/xlink" width="10px" height="px" viewBox="0 0 10 10" version="1.1">
<defs>
<linearGradient id="linear0" gradientUnits="userSpaceOnUse" x1="811.527" y1="574.895" x2="665.255" y2="573.732" gradientTransform="matrix(0.0505312,0,0,0.0494028,-33.605512,-25.519334)">
<stop offset="0" style="stop-color:rgb(21.176471%,41.568627%,58.823529%);stop-opacity:1;"/>
<stop offset="1" style="stop-color:rgb(21.176471%,47.45098%,69.019608%);stop-opacity:1;"/>
</linearGradient>
<linearGradient id="linear1" gradientUnits="userSpaceOnUse" x1="862.824" y1="642.176" x2="573.276" y2="642.176" gradientTransform="matrix(0.0505312,0,0,0.0494028,-33.605512,-25.519334)">
<stop offset="0" style="stop-color:rgb(100%,78.431373%,21.176471%);stop-opacity:1;"/>
<stop offset="1" style="stop-color:rgb(100%,90.980392%,45.098039%);stop-opacity:1;"/>
</linearGradient>
</defs>
<g id="surface1">
<path style=" stroke:none;fill-rule:nonzero;fill:url(#linear0);" d="M 2.585938 1.378906 C 2.585938 0.707031 2.773438 0.339844 3.792969 0.167969 C 4.484375 0.046875 5.371094 0.03125 6.199219 0.167969 C 6.851562 0.273438 7.402344 0.746094 7.402344 1.378906 L 7.402344 3.601562 C 7.402344 4.25 6.867188 4.785156 6.199219 4.785156 L 3.792969 4.785156 C 2.976562 4.785156 2.285156 5.464844 2.285156 6.234375 L 2.285156 7.300781 L 1.457031 7.300781 C 0.757812 7.300781 0.351562 6.808594 0.179688 6.117188 C -0.0507812 5.1875 -0.0390625 4.636719 0.179688 3.75 C 0.371094 2.972656 0.984375 2.566406 1.683594 2.566406 L 4.996094 2.566406 L 4.996094 2.269531 L 2.585938 2.269531 Z M 2.585938 1.378906 "/>
<path style=" stroke:none;fill-rule:nonzero;fill:url(#linear1);" d="M 7.402344 8.484375 C 7.402344 9.160156 6.804688 9.5 6.199219 9.667969 C 5.285156 9.925781 4.554688 9.886719 3.792969 9.667969 C 3.15625 9.488281 2.585938 9.117188 2.585938 8.484375 L 2.585938 6.265625 C 2.585938 5.625 3.132812 5.082031 3.792969 5.082031 L 6.199219 5.082031 C 7 5.082031 7.703125 4.402344 7.703125 3.601562 L 7.703125 2.566406 L 8.605469 2.566406 C 9.304688 2.566406 9.636719 3.074219 9.808594 3.75 C 10.050781 4.6875 10.0625 5.386719 9.808594 6.117188 C 9.566406 6.828125 9.304688 7.300781 8.605469 7.300781 L 4.996094 7.300781 L 4.996094 7.597656 L 7.402344 7.597656 Z M 7.402344 8.484375 "/>
<path style=" stroke:none;fill-rule:nonzero;fill:rgb(100%,100%,100%);fill-opacity:1;" d="M 3.191406 1.234375 C 3.191406 0.988281 3.390625 0.789062 3.640625 0.789062 C 3.890625 0.789062 4.09375 0.988281 4.09375 1.234375 C 4.09375 1.476562 3.890625 1.675781 3.640625 1.675781 C 3.390625 1.675781 3.191406 1.476562 3.191406 1.234375 Z M 5.898438 8.632812 C 5.898438 8.386719 6.101562 8.1875 6.347656 8.1875 C 6.597656 8.1875 6.800781 8.386719 6.800781 8.632812 C 6.800781 8.878906 6.597656 9.078125 6.347656 9.078125 C 6.101562 9.078125 5.898438 8.878906 5.898438 8.632812 Z M 5.898438 8.632812 "/>
</g>
</svg>
