<?xml version="1.0" encoding="UTF-8"?>
<svg xmlns="http://www.w3.org/2000/svg" xmlns:xlink="http://www.w3.org/1999/xlink" width="10px" height="px" viewBox="0 0 10 10" version="1.1">
<g id="surface1">
<path style=" stroke:none;fill-rule:nonzero;fill:rgb(0%,47.843137%,80%);fill-opacity:1;" d="M 0 5 L 0 10 L 10 10 L 10 0 L 0 0 Z M 8.058594 4.601562 C 8.3125 4.664062 8.507812 4.777344 8.683594 4.960938 C 8.777344 5.058594 8.914062 5.238281 8.925781 5.28125 C 8.925781 5.296875 8.492188 5.585938 8.230469 5.75 C 8.21875 5.757812 8.179688 5.714844 8.136719 5.652344 C 8.007812 5.464844 7.875 5.382812 7.667969 5.371094 C 7.363281 5.347656 7.167969 5.507812 7.171875 5.773438 C 7.171875 5.851562 7.183594 5.898438 7.214844 5.960938 C 7.28125 6.097656 7.40625 6.179688 7.792969 6.347656 C 8.507812 6.65625 8.816406 6.859375 9.007812 7.148438 C 9.21875 7.472656 9.265625 7.984375 9.121094 8.367188 C 8.964844 8.785156 8.570312 9.066406 8.015625 9.160156 C 7.84375 9.191406 7.4375 9.1875 7.253906 9.152344 C 6.851562 9.082031 6.472656 8.882812 6.238281 8.621094 C 6.144531 8.519531 5.964844 8.257812 5.976562 8.238281 C 5.980469 8.230469 6.023438 8.207031 6.066406 8.179688 L 6.441406 7.964844 L 6.726562 7.796875 L 6.789062 7.886719 C 6.871094 8.015625 7.054688 8.191406 7.167969 8.25 C 7.484375 8.417969 7.925781 8.394531 8.140625 8.199219 C 8.230469 8.117188 8.269531 8.027344 8.269531 7.902344 C 8.269531 7.785156 8.257812 7.734375 8.195312 7.648438 C 8.117188 7.535156 7.957031 7.441406 7.507812 7.246094 C 6.992188 7.023438 6.769531 6.886719 6.566406 6.667969 C 6.449219 6.539062 6.339844 6.335938 6.292969 6.167969 C 6.253906 6.027344 6.246094 5.671875 6.273438 5.527344 C 6.378906 5.027344 6.757812 4.683594 7.300781 4.578125 C 7.476562 4.546875 7.886719 4.558594 8.058594 4.601562 Z M 5.710938 5.019531 L 5.714844 5.429688 L 4.414062 5.429688 L 4.414062 9.125 L 3.492188 9.125 L 3.492188 5.429688 L 2.191406 5.429688 L 2.191406 5.027344 L 2.203125 4.613281 C 2.207031 4.609375 3 4.605469 3.957031 4.605469 L 5.707031 4.609375 Z M 5.710938 5.019531 "/>
</g>
</svg>
