<!DOCTYPE svg PUBLIC "-//W3C//DTD SVG 1.1//EN" "http://www.w3.org/Graphics/SVG/1.1/DTD/svg11.dtd">
<!-- Uploaded to: SVG Repo, www.svgrepo.com, Transformed by: SVG Repo Mixer Tools -->
<svg fill="#000000" version="1.1" xmlns="http://www.w3.org/2000/svg" xmlns:xlink="http://www.w3.org/1999/xlink" width="800px" height="800px" viewBox="-51.2 -51.2 614.40 614.40" enable-background="new 0 0 512 512" xml:space="preserve">
<g id="SVGRepo_bgCarrier" stroke-width="0" transform="translate(69.12,69.12), scale(0.73)">
<path transform="translate(-51.2, -51.2), scale(19.2)" d="M16,28.824733968824148C19.819658818198306,28.84445888663218,24.11035967810913,29.5118571066295,26.843476004781593,26.843476004781593C29.5915060346764,24.16053443821848,29.10138238138191,19.84039783752548,29.13586345336893,16C29.17082365770571,12.106237845941902,29.839413361958933,7.666636792737252,27.03995674765854,4.960043252341462C24.258701656490828,2.2710474574097836,19.815502379483885,2.6611127364021074,16,3.299877058714628C12.843726520539693,3.82827795841821,10.564354806798356,6.0533209953199245,8.126414267994209,8.126414267994207C5.33441645047203,10.500578773116079,1.6212953122615015,12.37754532183162,1.0647604840204998,15.999999999999996C0.4582685712922968,19.94762260158528,2.2378328233508062,24.130136456143234,5.267941184879238,26.73205881512076C8.142517625030056,29.200427539876763,12.211114802053272,28.805167967599775,16,28.824733968824148" fill="#ffffff" strokewidth="0"/>
</g>
<g id="SVGRepo_tracerCarrier" stroke-linecap="round" stroke-linejoin="round" stroke="#CCCCCC" stroke-width="1.024"/>
<g id="SVGRepo_iconCarrier"> <g id="c133de6af664cd4f011a55de6b001a2b"> <path display="inline" d="M204.064,46.682v22.018h-56.302V0.501h56.302v24.13h-32.172v22.051H204.064z M261.941,24.631h22.492 V0.501h-56.308c0,0,0,12.112,0,24.13c7.533,7.533,11.461,11.139,22.356,22.034c-6.369,0-22.356,0.022-22.356,0.021v22.014h56.308 V46.682L261.941,24.631z M341.746,24.631h22.49V0.501H307.93c0,0,0,12.112,0,24.13c7.531,7.533,11.461,11.139,22.355,22.034 c-6.365,0-22.355,0.022-22.355,0.021v22.014h56.307V46.682L341.746,24.631z M438.395,101.112l-34.203,370.486l-148.193,39.9 l-148.196-39.9L73.605,101.112H438.395z M369.477,176.444H255.865h-115.62l5.529,44.739h110.091h6.184l-6.184,2.574 l-106.067,44.177l3.518,43.73l102.549,0.333l54.963,0.175l-3.521,58.311l-51.442,14.484v-0.046l-0.422,0.116l-49.684-12.542 l-3.015-36.195h-0.164h-46.085h-0.162l6.032,69.876l93.5,27.649v-0.05l0.168,0.05l93-27.146L361.1,267.935H255.865h-0.26 l0.26-0.112l109.086-46.639L369.477,176.444z"> </path> </g> </g>
</svg>